<?xml version="1.0" standalone="no"?>
<!DOCTYPE svg PUBLIC "-//W3C//DTD SVG 20010904//EN"
 "http://www.w3.org/TR/2001/REC-SVG-20010904/DTD/svg10.dtd">
<svg version="1.0" xmlns="http://www.w3.org/2000/svg"
 width="803.000000pt" height="753.000000pt" viewBox="0 0 803.000000 753.000000"
 preserveAspectRatio="xMidYMid meet">

<g transform="translate(0.000000,753.000000) scale(0.100000,-0.100000)"
fill="#000000" stroke="none">
<path d="M0 3765 l0 -3765 4015 0 4015 0 0 3765 0 3765 -4015 0 -4015 0 0
-3765z m3600 3340 c646 -98 1242 -437 1645 -937 156 -194 309 -457 403 -694
339 -849 188 -1849 -386 -2562 l-75 -94 1041 -1041 1042 -1042 -132 -133 -133
-132 -1041 1041 -1042 1042 -83 -69 c-282 -229 -697 -428 -1049 -502 -234 -50
-305 -57 -570 -57 -292 0 -399 13 -646 75 -549 139 -1056 468 -1397 905 -279
358 -456 761 -532 1207 -74 441 -20 944 147 1362 249 627 711 1121 1313 1407
237 112 499 191 740 223 66 9 134 18 150 20 79 11 496 -2 605 -19z"/>
<path d="M2970 6745 c-682 -76 -1292 -464 -1652 -1051 -155 -251 -253 -514
-305 -809 -25 -143 -25 -577 0 -720 139 -797 663 -1437 1417 -1730 621 -241
1356 -176 1933 172 379 228 663 537 865 939 63 125 112 257 151 404 57 214 65
290 65 575 0 202 -4 282 -17 360 -115 661 -493 1214 -1066 1559 -411 248 -906
355 -1391 301z"/>
</g>
</svg>
